<?xml version="1.0" encoding="utf-8"?>
<!-- Generator: Adobe Illustrator 19.0.0, SVG Export Plug-In . SVG Version: 6.00 Build 0)  -->
<svg version="1.1" id="Layer_1" xmlns="http://www.w3.org/2000/svg" x="0px"
     y="0px"
     width="100px" height="100px" viewBox="-247 370.9 100 100" style="enable-background:new -247 370.9 100 100;"
     xml:space="preserve">
<g>
	<path d="M-147.7,390.4c-0.3-5.5-4.7-9.8-10-9.8h-78.8c-5.6,0-10.1,4.6-10.1,10.2v42.3c0,5.5,4.6,10.2,10.1,10.2h2.3v14.1
		c0,1.5,0.8,2.8,2.2,3.4c0.6,0.3,1.1,0.4,1.7,0.4c1,0,1.9-0.4,2.6-1.1l17.3-16.9h52.8c5.4,0,10-4.7,10-10.2v-42.6L-147.7,390.4z
		 M-152.7,433.1c0,2.8-2.3,5.2-5,5.2h-54.8l-16.7,16.3v-16.3h-7.3c-2.7,0-5.1-2.4-5.1-5.2v-42.3c0-2.8,2.3-5.2,5.1-5.2h78.8
		c2.7,0,4.8,2.2,5,5V433.1z"/>
    <path d="M-222.7,399.2h50.5c1.4,0,2.5-1.1,2.5-2.5l0,0c0-1.4-1.1-2.5-2.5-2.5h-50.5c-1.4,0-2.5,1.1-2.5,2.5l0,0
		C-225.2,398.1-224.1,399.2-222.7,399.2z"/>
    <path d="M-222.7,408.7h50.5c1.4,0,2.5-1.1,2.5-2.5l0,0c0-1.4-1.1-2.5-2.5-2.5h-50.5c-1.4,0-2.5,1.1-2.5,2.5l0,0
		C-225.2,407.6-224.1,408.7-222.7,408.7z"/>
    <path d="M-222.7,418.2h50.5c1.4,0,2.5-1.1,2.5-2.5l0,0c0-1.4-1.1-2.5-2.5-2.5h-50.5c-1.4,0-2.5,1.1-2.5,2.5l0,0
		C-225.2,417.1-224.1,418.2-222.7,418.2z"/>
    <path d="M-222.7,427.7h29.6c1.4,0,2.5-1.1,2.5-2.5l0,0c0-1.4-1.1-2.5-2.5-2.5h-29.6c-1.4,0-2.5,1.1-2.5,2.5l0,0
		C-225.2,426.6-224.1,427.7-222.7,427.7z"/>
</g>
</svg>
